Motion_pl10
version=1
nRows=5
nColumns=43
inDegrees=yes
endheader
time	pelvis_tilt	pelvis_list	pelvis_rotation	pelvis_tx	pelvis_ty	pelvis_tz	hip_flexion_r	hip_adduction_r	hip_rotation_r	knee_angle_r	ankle_angle_r	subtalar_angle_r	mtp_angle_r	hip_flexion_l	hip_adduction_l	hip_rotation_l	knee_angle_l	ankle_angle_l	subtalar_angle_l	mtp_angle_l	lumbar_extension	lumbar_bending	lumbar_rotation	neck_flexion	neck_lateral_bending	neck_rotation	arm_flex_r	arm_add_r	arm_rot_r	elbow_flex_r	pro_sup_r	wrist_flex_r	wrist_dev_r	hand_finger_flex_r	arm_flex_l	arm_add_l	arm_rot_l	elbow_flex_l	pro_sup_l	wrist_flex_l	wrist_dev_l	hand_finger_flex_l
      0.41750000	      5.76272451	    -26.15549893	     95.92603845	      0.00852980	      1.75053799	      1.41691449	     72.89477630	    -11.22836286	     -2.20713449	   -120.87684267	      8.76194863	     -3.94586653	      4.52136386	     74.35556986	     -9.64146319	      9.40527322	   -122.06291866	     22.41181304	    -10.46519727	    -11.70748659	    -22.80768546	      3.98481996	     -3.84128604	     16.94763088	      3.35576339	      6.94872506	    113.15465797	    -21.12092829	     44.28490907	     62.30717229	     79.07210978	    -39.17274491	     -7.51768199	     49.64861557	    133.02424954	    -21.59355960	     77.89345376	     58.46868799	     84.79191168	    -42.51250853	     10.10336595	     77.47385996
      0.42000000	      5.77402930	    -25.98212833	     95.94090168	      0.00839705	      1.74988252	      1.41279716	     73.37064130	    -11.15349930	     -2.37141035	   -120.51464835	      9.09274773	     -4.08779014	      4.38043328	     74.77769284	     -9.48287241	      9.39411090	   -121.89437915	     22.83684889	    -10.58718889	    -11.70430983	    -23.13797886	      4.04336748	     -3.82640117	     17.35354883	      3.31429832	      6.96955040	    112.89480180	    -21.17844010	     43.94153574	     62.34050892	     79.15647087	    -39.33818395	     -7.50075755	     49.59966132	    132.81609563	    -21.75024403	     77.66396423	     58.51997700	     84.94766260	    -42.56278492	     10.09192475	     77.54655288
      0.42250000	      5.80905890	    -25.83114197	     96.01821198	      0.00836788	      1.74927351	      1.40846125	     73.81777217	    -11.10779952	     -2.62268073	   -120.09270517	      9.42250722	     -4.25330997	      4.17574936	     75.21451279	     -9.30322253	      9.44432583	   -121.66235609	     23.14333503	    -10.56885905	    -11.74129190	    -23.41170141	      4.11891917	     -3.86805011	     17.58471494	      3.31917740	      6.95305778	    112.37864231	    -21.22281569	     43.36188756	     62.53639358	     79.33481120	    -39.70514445	     -7.49828278	     49.49289202	    132.46374460	    -22.03230774	     77.29825708	     58.80176275	     85.25278560	    -42.65251457	     10.02363782	     77.68226291
      0.42500000	      5.87567976	    -25.70717660	     96.12510154	      0.00833463	      1.74852235	      1.40425443	     74.31621517	    -11.05650946	     -2.91709365	   -119.65143360	      9.73161320	     -4.33910034	      3.94372444	     75.71294467	     -9.10580629	      9.52801955	   -121.41871395	     23.46503675	    -10.48502990	    -11.80054846	    -23.64360138	      4.22700986	     -3.91727602	     17.81254837	      3.32124278	      6.97535726	    111.84652934	    -21.18468614	     42.73445554	     62.61811092	     79.62014224	    -40.11906500	     -7.45755047	     49.35415022	    132.06289927	    -22.24615044	     76.90075211	     58.94985467	     85.69554197	    -42.74932850	      9.97870182	     77.84399295
      0.42750000	      5.96541287	    -25.59738834	     96.24260518	      0.00831619	      1.74772234	      1.39994529	     74.80705168	    -11.01677953	     -3.23549913	   -119.16223378	     10.05458153	     -4.31152691	      3.70790491	     76.22380758	     -8.92181924	      9.64055098	   -121.14078936	     23.76699874	    -10.34068723	    -11.88793170	    -23.84899372	      4.35476543	     -3.96093914	     17.94037726	      3.33688542	      6.98728251	    111.25803944	    -21.21134980	     42.12733115	     62.80335587	     80.00489163	    -40.49453034	     -7.42102398	     49.22439826	    131.60748966	    -22.53508632	     76.47102386	     59.21631320	     86.24311843	    -42.82902627	      9.94079788	     78.05769795
